<svg width="52" height="52" viewBox="0 0 52 52" fill="none" xmlns="http://www.w3.org/2000/svg">
<g id="Frame">
<path id="Vector" d="M32.7763 26L42.9396 15.8366C44.1868 14.5895 44.1868 12.5673 42.9396 11.3191L40.6809 9.06039C39.4337 7.8132 37.4116 7.8132 36.1634 9.06039L26 19.2238L15.8366 9.06039C14.5895 7.8132 12.5673 7.8132 11.3191 9.06039L9.06039 11.3191C7.8132 12.5663 7.8132 14.5884 9.06039 15.8366L19.2238 26L9.06039 36.1634C7.8132 37.4105 7.8132 39.4327 9.06039 40.6809L11.3191 42.9396C12.5663 44.1868 14.5895 44.1868 15.8366 42.9396L26 32.7763L36.1634 42.9396C37.4105 44.1868 39.4337 44.1868 40.6809 42.9396L42.9396 40.6809C44.1868 39.4337 44.1868 37.4116 42.9396 36.1634L32.7763 26Z" fill="#F85858"/>
</g>
</svg>
