<svg width="408" height="75" viewBox="0 0 408 75" fill="none" xmlns="http://www.w3.org/2000/svg">
<path d="M6.944 74C5.152 74 3.68 73.584 2.528 72.752C1.376 71.92 0.8 70.992 0.8 69.968V32.24C0.8 31.088 1.376 30.16 2.528 29.456C3.68 28.752 5.152 28.4 6.944 28.4C8.48 28.4 9.76 28.752 10.784 29.456C11.872 30.16 12.416 31.088 12.416 32.24V35.12C13.504 33.264 15.104 31.6 17.216 30.128C19.328 28.592 21.984 27.824 25.184 27.824C27.936 27.824 30.368 28.72 32.48 30.512C34.592 32.304 36.16 34.608 37.184 37.424C38.848 34.16 40.96 31.76 43.52 30.224C46.144 28.624 48.832 27.824 51.584 27.824C54.528 27.824 57.28 28.592 59.84 30.128C62.464 31.6 64.576 33.808 66.176 36.752C67.84 39.632 68.672 43.152 68.672 47.312V69.968C68.672 70.992 68.064 71.92 66.848 72.752C65.632 73.584 64.16 74 62.432 74C60.768 74 59.328 73.584 58.112 72.752C56.896 71.92 56.288 70.992 56.288 69.968V47.312C56.288 45.392 55.904 43.792 55.136 42.512C54.432 41.232 53.472 40.272 52.256 39.632C51.04 38.928 49.792 38.576 48.512 38.576C47.296 38.576 46.112 38.928 44.96 39.632C43.808 40.272 42.848 41.232 42.08 42.512C41.312 43.792 40.928 45.36 40.928 47.216V70.064C40.928 71.472 40.256 72.496 38.912 73.136C37.632 73.712 36.224 74 34.688 74C33.28 74 31.904 73.712 30.56 73.136C29.216 72.496 28.544 71.472 28.544 70.064V47.312C28.544 45.52 28.16 43.984 27.392 42.704C26.688 41.424 25.728 40.432 24.512 39.728C23.36 39.024 22.112 38.672 20.768 38.672C19.488 38.672 18.272 38.992 17.12 39.632C15.968 40.272 15.008 41.232 14.24 42.512C13.536 43.792 13.184 45.392 13.184 47.312V69.968C13.184 70.992 12.576 71.92 11.36 72.752C10.144 73.584 8.672 74 6.944 74ZM99.3665 74.864C94.8225 74.864 90.7905 74.064 87.2705 72.464C83.8145 70.8 81.0945 68.496 79.1105 65.552C77.1265 62.544 76.1345 59.088 76.1345 55.184V47.024C76.1345 43.568 77.0625 40.4 78.9185 37.52C80.8385 34.576 83.3665 32.24 86.5025 30.512C89.7025 28.72 93.2545 27.824 97.1585 27.824C100.743 27.824 104.007 28.592 106.951 30.128C109.959 31.664 112.391 33.776 114.247 36.464C116.103 39.152 117.031 42.288 117.031 45.872C117.031 48.624 116.583 50.608 115.687 51.824C114.791 52.976 113.639 53.712 112.231 54.032C110.887 54.288 109.479 54.416 108.007 54.416H88.5185V55.856C88.5185 58.608 89.5425 60.848 91.5905 62.576C93.7025 64.24 96.4225 65.072 99.7505 65.072C101.863 65.072 103.623 64.752 105.031 64.112C106.439 63.472 107.655 62.864 108.679 62.288C109.703 61.712 110.663 61.424 111.559 61.424C112.519 61.424 113.351 61.744 114.055 62.384C114.759 63.024 115.303 63.792 115.687 64.688C116.071 65.52 116.263 66.256 116.263 66.896C116.263 67.984 115.559 69.168 114.151 70.448C112.807 71.664 110.855 72.72 108.295 73.616C105.799 74.448 102.823 74.864 99.3665 74.864ZM88.5185 47.12H102.535C103.623 47.12 104.359 46.96 104.743 46.64C105.191 46.256 105.415 45.552 105.415 44.528C105.415 43.056 104.999 41.744 104.167 40.592C103.399 39.44 102.375 38.544 101.095 37.904C99.8785 37.264 98.5025 36.944 96.9665 36.944C95.4945 36.944 94.1185 37.264 92.8385 37.904C91.5585 38.48 90.5025 39.344 89.6705 40.496C88.9025 41.584 88.5185 42.896 88.5185 44.432V47.12ZM142.024 74C136.264 74 131.848 72.752 128.776 70.256C125.768 67.76 124.264 63.792 124.264 58.352V11.888C124.264 10.736 124.936 9.808 126.28 9.10399C127.624 8.4 129 8.048 130.408 8.048C131.944 8.048 133.352 8.4 134.632 9.10399C135.976 9.808 136.648 10.736 136.648 11.888V28.4H147.976C149 28.4 149.768 28.88 150.28 29.84C150.856 30.736 151.144 31.76 151.144 32.912C151.144 34.064 150.856 35.12 150.28 36.08C149.768 36.976 149 37.424 147.976 37.424H136.648V58.352C136.648 60.272 137.032 61.616 137.8 62.384C138.632 63.152 140.04 63.536 142.024 63.536H145.768C147.56 63.536 148.872 64.08 149.704 65.168C150.6 66.256 151.048 67.44 151.048 68.72C151.048 70.064 150.6 71.28 149.704 72.368C148.872 73.456 147.56 74 145.768 74H142.024ZM167.248 74.864C163.856 74.864 160.912 73.84 158.416 71.792C155.984 69.68 154.768 66.448 154.768 62.096C154.768 58.448 155.696 55.6 157.552 53.552C159.472 51.504 162.096 50.064 165.424 49.232C168.816 48.4 172.72 47.984 177.136 47.984H181.072V46.736C181.072 45.328 180.784 43.952 180.208 42.608C179.696 41.264 178.832 40.144 177.616 39.248C176.464 38.352 174.8 37.904 172.624 37.904C170.192 37.904 168.304 38.16 166.96 38.672C165.68 39.12 164.688 39.6 163.984 40.112C163.28 40.624 162.512 40.88 161.68 40.88C160.336 40.88 159.28 40.208 158.512 38.864C157.808 37.52 157.456 36.144 157.456 34.736C157.456 33.392 158.256 32.208 159.856 31.184C161.52 30.096 163.536 29.264 165.904 28.688C168.272 28.112 170.576 27.824 172.816 27.824C177.808 27.824 181.808 28.72 184.816 30.512C187.824 32.304 190 34.608 191.344 37.424C192.752 40.24 193.456 43.28 193.456 46.544V69.968C193.456 71.12 192.88 72.08 191.728 72.848C190.576 73.616 189.136 74 187.408 74C185.808 74 184.464 73.616 183.376 72.848C182.352 72.08 181.84 71.12 181.84 69.968V67.28C180.112 69.264 178.064 71.024 175.696 72.56C173.392 74.096 170.576 74.864 167.248 74.864ZM172.24 65.648C173.584 65.648 174.928 65.2 176.272 64.304C177.616 63.408 178.736 62.256 179.632 60.848C180.592 59.44 181.072 57.968 181.072 56.432V54.416H179.632C177.52 54.416 175.504 54.544 173.584 54.8C171.664 55.056 170.096 55.632 168.88 56.528C167.728 57.36 167.152 58.672 167.152 60.464C167.152 62.256 167.632 63.568 168.592 64.4C169.616 65.232 170.832 65.648 172.24 65.648ZM206.1 74.576C204.82 74.576 203.732 74.128 202.836 73.232C202.004 72.336 201.588 71.312 201.588 70.16C201.588 68.88 202.004 67.824 202.836 66.992C203.732 66.096 204.82 65.648 206.1 65.648C207.252 65.648 208.244 66.096 209.076 66.992C209.972 67.824 210.42 68.88 210.42 70.16C210.42 71.312 209.972 72.336 209.076 73.232C208.244 74.128 207.252 74.576 206.1 74.576Z" fill="white"/>
<path d="M235.466 74.672C232.522 74.672 229.738 73.84 227.114 72.176C224.49 70.448 222.378 68.176 220.778 65.36C219.242 62.544 218.474 59.568 218.474 56.432V46.064C218.474 42.736 219.242 39.728 220.778 37.04C222.378 34.288 224.49 32.112 227.114 30.512C229.738 28.848 232.618 28.016 235.754 28.016C238.89 28.016 241.514 28.784 243.626 30.32C245.802 31.792 247.402 33.456 248.426 35.312V3.152C248.426 2.384 248.746 1.80799 249.386 1.424C250.026 0.975998 250.762 0.751999 251.594 0.751999C252.554 0.751999 253.29 0.975998 253.802 1.424C254.378 1.80799 254.666 2.384 254.666 3.152V71.504C254.666 72.144 254.378 72.72 253.802 73.232C253.29 73.744 252.554 74 251.594 74C250.826 74 250.122 73.744 249.482 73.232C248.906 72.72 248.618 72.144 248.618 71.504V67.28C247.658 69.264 245.962 70.992 243.53 72.464C241.162 73.936 238.474 74.672 235.466 74.672ZM236.618 68.912C238.922 68.912 240.938 68.336 242.666 67.184C244.458 65.968 245.866 64.624 246.89 63.152C247.914 61.616 248.426 60.368 248.426 59.408V46.064C248.426 43.44 247.85 41.232 246.698 39.44C245.546 37.648 244.074 36.272 242.282 35.312C240.49 34.288 238.634 33.776 236.714 33.776C234.538 33.776 232.554 34.384 230.762 35.6C228.97 36.752 227.53 38.256 226.442 40.112C225.354 41.968 224.81 43.952 224.81 46.064V56.432C224.81 58.544 225.354 60.56 226.442 62.48C227.53 64.4 228.97 65.968 230.762 67.184C232.554 68.336 234.506 68.912 236.618 68.912ZM269.87 15.152C268.718 15.152 267.694 14.768 266.798 14C265.966 13.168 265.55 12.208 265.55 11.12C265.55 10.032 265.966 9.104 266.798 8.336C267.694 7.568 268.718 7.184 269.87 7.184C271.022 7.184 272.014 7.568 272.846 8.336C273.678 9.104 274.094 10.032 274.094 11.12C274.094 12.208 273.678 13.168 272.846 14C272.014 14.768 271.022 15.152 269.87 15.152ZM269.774 74C268.942 74 268.206 73.744 267.566 73.232C266.99 72.72 266.702 72.144 266.702 71.504V30.992C266.702 30.224 266.99 29.648 267.566 29.264C268.206 28.816 268.942 28.592 269.774 28.592C270.67 28.592 271.406 28.816 271.982 29.264C272.622 29.648 272.942 30.224 272.942 30.992V71.504C272.942 72.144 272.622 72.72 271.982 73.232C271.406 73.744 270.67 74 269.774 74ZM294.97 74.672C291.322 74.672 288.218 73.648 285.658 71.6C283.162 69.488 281.914 66.288 281.914 62C281.914 58.48 282.842 55.792 284.698 53.936C286.618 52.016 289.242 50.704 292.57 50C295.962 49.232 299.866 48.848 304.281 48.848H309.178V46.64C309.178 44.528 308.794 42.48 308.026 40.496C307.322 38.448 306.138 36.784 304.474 35.504C302.874 34.16 300.666 33.488 297.85 33.488C295.738 33.488 294.01 33.712 292.666 34.16C291.322 34.608 290.266 35.088 289.498 35.6C288.73 36.048 288.09 36.272 287.578 36.272C286.81 36.272 286.17 35.888 285.658 35.12C285.21 34.352 284.986 33.648 284.986 33.008C284.986 32.112 285.658 31.312 287.002 30.608C288.346 29.84 290.01 29.232 291.994 28.784C294.042 28.272 296.058 28.016 298.042 28.016C302.33 28.016 305.722 28.912 308.218 30.704C310.778 32.432 312.602 34.704 313.69 37.52C314.842 40.336 315.418 43.344 315.418 46.544V71.504C315.418 72.208 315.13 72.816 314.554 73.328C314.042 73.776 313.306 74 312.346 74C311.578 74 310.874 73.776 310.234 73.328C309.658 72.816 309.37 72.208 309.37 71.504V67.28C307.77 69.2 305.786 70.928 303.418 72.464C301.05 73.936 298.234 74.672 294.97 74.672ZM296.506 69.392C298.618 69.392 300.634 68.848 302.554 67.76C304.474 66.672 306.042 65.36 307.258 63.824C308.538 62.224 309.178 60.72 309.178 59.312V53.168H305.146C302.266 53.168 299.514 53.36 296.89 53.744C294.33 54.064 292.218 54.8 290.554 55.952C288.954 57.104 288.154 58.928 288.154 61.424C288.154 64.176 288.954 66.192 290.554 67.472C292.218 68.752 294.202 69.392 296.506 69.392ZM295.45 17.456C294.81 17.456 294.234 17.168 293.722 16.592C293.21 16.016 292.954 15.408 292.954 14.768C292.954 13.872 293.306 13.264 294.01 12.944L304.762 7.088C305.082 6.896 305.338 6.8 305.53 6.8C306.234 6.8 306.778 7.088 307.161 7.664C307.61 8.24 307.834 8.88 307.834 9.584C307.834 10.544 307.45 11.248 306.682 11.696L296.41 17.072C296.282 17.136 296.122 17.232 295.93 17.36C295.738 17.424 295.578 17.456 295.45 17.456ZM330.055 74C329.223 74 328.487 73.744 327.847 73.232C327.271 72.72 326.983 72.144 326.983 71.504V30.992C326.983 30.224 327.271 29.648 327.847 29.264C328.487 28.816 329.223 28.592 330.055 28.592C330.887 28.592 331.591 28.816 332.167 29.264C332.743 29.648 333.031 30.224 333.031 30.992V35.696C333.735 34.352 334.695 33.104 335.911 31.952C337.127 30.8 338.567 29.872 340.231 29.168C341.895 28.4 343.783 28.016 345.895 28.016H349.255C349.959 28.016 350.535 28.304 350.983 28.88C351.495 29.456 351.751 30.128 351.751 30.896C351.751 31.728 351.495 32.432 350.983 33.008C350.535 33.52 349.959 33.776 349.255 33.776H345.895C343.783 33.776 341.735 34.352 339.751 35.504C337.831 36.656 336.263 38.256 335.047 40.304C333.831 42.352 333.223 44.848 333.223 47.792V71.504C333.223 72.144 332.903 72.72 332.263 73.232C331.687 73.744 330.951 74 330.055 74ZM361.839 15.152C360.687 15.152 359.663 14.768 358.767 14C357.935 13.168 357.519 12.208 357.519 11.12C357.519 10.032 357.935 9.104 358.767 8.336C359.663 7.568 360.687 7.184 361.839 7.184C362.991 7.184 363.983 7.568 364.815 8.336C365.647 9.104 366.063 10.032 366.063 11.12C366.063 12.208 365.647 13.168 364.815 14C363.983 14.768 362.991 15.152 361.839 15.152ZM361.743 74C360.911 74 360.175 73.744 359.535 73.232C358.959 72.72 358.671 72.144 358.671 71.504V30.992C358.671 30.224 358.959 29.648 359.535 29.264C360.175 28.816 360.911 28.592 361.743 28.592C362.639 28.592 363.375 28.816 363.951 29.264C364.591 29.648 364.911 30.224 364.911 30.992V71.504C364.911 72.144 364.591 72.72 363.951 73.232C363.375 73.744 362.639 74 361.743 74ZM386.938 74.672C383.29 74.672 380.186 73.648 377.626 71.6C375.13 69.488 373.882 66.288 373.882 62C373.882 58.48 374.81 55.792 376.666 53.936C378.586 52.016 381.21 50.704 384.538 50C387.93 49.232 391.834 48.848 396.25 48.848H401.146V46.64C401.146 44.528 400.762 42.48 399.994 40.496C399.29 38.448 398.106 36.784 396.442 35.504C394.842 34.16 392.634 33.488 389.818 33.488C387.706 33.488 385.978 33.712 384.634 34.16C383.29 34.608 382.234 35.088 381.466 35.6C380.698 36.048 380.058 36.272 379.546 36.272C378.778 36.272 378.138 35.888 377.626 35.12C377.178 34.352 376.954 33.648 376.954 33.008C376.954 32.112 377.626 31.312 378.97 30.608C380.314 29.84 381.978 29.232 383.962 28.784C386.01 28.272 388.026 28.016 390.01 28.016C394.298 28.016 397.69 28.912 400.186 30.704C402.746 32.432 404.57 34.704 405.658 37.52C406.81 40.336 407.386 43.344 407.386 46.544V71.504C407.386 72.208 407.098 72.816 406.522 73.328C406.01 73.776 405.274 74 404.314 74C403.546 74 402.842 73.776 402.202 73.328C401.626 72.816 401.338 72.208 401.338 71.504V67.28C399.738 69.2 397.754 70.928 395.386 72.464C393.018 73.936 390.202 74.672 386.938 74.672ZM388.474 69.392C390.586 69.392 392.602 68.848 394.522 67.76C396.442 66.672 398.01 65.36 399.226 63.824C400.506 62.224 401.146 60.72 401.146 59.312V53.168H397.114C394.234 53.168 391.482 53.36 388.858 53.744C386.298 54.064 384.186 54.8 382.522 55.952C380.922 57.104 380.122 58.928 380.122 61.424C380.122 64.176 380.922 66.192 382.522 67.472C384.186 68.752 386.17 69.392 388.474 69.392Z" fill="#45EDAD"/>
</svg>
